<svg width="1000" height="675" viewBox="0 0 1000 675" fill="none" xmlns="http://www.w3.org/2000/svg">
<rect width="1000" height="675" fill="#E5E5E5"/>
<rect width="1000" height="675" fill="white"/>
<path d="M813.625 307C805.237 307 797.194 310.44 791.263 316.564C785.332 322.688 782 330.993 782 339.654C782 342.622 782.517 345.591 783.265 348.559H806.725L814.027 328.551C815.752 323.802 822.537 323.327 824.722 328.551L836.625 360.433L840.018 352.003C840.765 350.043 842.778 348.559 845.25 348.559H895.735C896.483 345.591 897 342.622 897 339.654C897 330.993 893.668 322.688 887.737 316.564C881.806 310.44 873.763 307 865.375 307C854.68 307 845.25 312.521 839.5 320.893C833.75 312.521 824.32 307 813.625 307ZM787.75 357.465C786.225 357.465 784.762 358.09 783.684 359.204C782.606 360.317 782 361.827 782 363.402C782 364.976 782.606 366.487 783.684 367.6C784.762 368.713 786.225 369.339 787.75 369.339H801.78L833.75 401.993C839.5 407.336 839.5 407.336 845.25 401.993L877.22 369.339H891.25C892.775 369.339 894.238 368.713 895.316 367.6C896.394 366.487 897 364.976 897 363.402C897 361.827 896.394 360.317 895.316 359.204C894.238 358.09 892.775 357.465 891.25 357.465H847.55L842.203 371.12C839.903 377.116 833.29 376.285 831.162 371.298L819.375 339.654L813.855 353.487C812.992 355.743 811.037 357.465 808.45 357.465H787.75Z" fill="black"/>
<path d="M911.805 198H768.01C751.418 198 738 211.785 738 229.064V588.803C738 606.176 751.418 621 768.01 621H911.715C928.306 621 941 606.176 941 588.803V229.064C941.09 211.785 928.397 198 911.805 198ZM825.945 219.717H853.145C855.14 219.717 856.771 221.416 856.771 223.493C856.771 225.571 855.14 227.27 853.145 227.27H825.945C823.951 227.27 822.319 225.571 822.319 223.493C822.319 221.416 823.951 219.717 825.945 219.717ZM839.998 606.837C831.295 606.837 824.223 599.472 824.223 590.408C824.223 581.344 831.295 573.979 839.998 573.979C848.702 573.979 855.774 581.344 855.774 590.408C855.774 599.472 848.702 606.837 839.998 606.837ZM924.77 560.571H754.32C753.322 560.571 752.506 559.722 752.506 558.683V248.042C752.506 247.004 753.322 246.154 754.32 246.154H924.77C925.768 246.154 926.584 247.004 926.584 248.042V558.683C926.584 559.722 925.768 560.571 924.77 560.571Z" fill="black"/>
<path d="M312.425 114C290.034 114 268.56 122.305 252.728 137.089C236.895 151.873 228 171.923 228 192.831C228 199.997 229.382 207.163 231.377 214.33H294.005L313.5 166.028C318.105 154.562 336.218 153.415 342.051 166.028L373.825 242.996L382.882 222.643C384.877 217.913 390.249 214.33 396.85 214.33H531.623C533.619 207.163 535 199.997 535 192.831C535 171.923 526.105 151.873 510.272 137.089C494.44 122.305 472.966 114 450.575 114C422.024 114 396.85 127.33 381.5 147.539C366.15 127.33 340.976 114 312.425 114ZM243.35 235.829C239.279 235.829 235.375 237.339 232.496 240.027C229.617 242.715 228 246.361 228 250.162C228 253.963 229.617 257.609 232.496 260.297C235.375 262.985 239.279 264.495 243.35 264.495H280.804L366.15 343.325C381.5 356.225 381.5 356.225 396.85 343.325L482.196 264.495H519.65C523.721 264.495 527.625 262.985 530.504 260.297C533.383 257.609 535 253.963 535 250.162C535 246.361 533.383 242.715 530.504 240.027C527.625 237.339 523.721 235.829 519.65 235.829H402.99L388.715 268.795C382.575 283.271 364.922 281.264 359.243 269.225L327.775 192.831L313.039 226.226C310.737 231.673 305.518 235.829 298.61 235.829H243.35Z" fill="black"/>
<path d="M530.854 612.117C530.387 608.69 527.743 606.042 524.32 605.419L489.626 602.459C471.267 597.631 457.732 577.225 454.931 558.377L453.064 546.383H309.931L308.064 558.221C305.108 577.069 291.729 597.475 273.37 602.304L238.676 605.263C235.409 606.042 232.608 608.69 232.142 611.961C231.519 616.79 235.253 620.996 240.076 620.996H522.92C527.587 621.152 531.476 616.946 530.854 612.117ZM718.95 33.9038C711.949 26.8942 702.303 23 692.501 23H70.6502C60.6931 23 51.2028 26.8942 44.2017 33.9038C37.2006 40.9134 33 50.5711 33 60.3845V484.075C33 494.044 37.2006 503.546 44.2017 510.556C51.2028 517.565 60.5376 521.46 70.3391 521.46H692.657C702.614 521.46 711.793 517.565 718.794 510.556C725.795 503.546 729.996 493.889 729.996 484.075V60.3845C730.151 50.5711 725.951 40.9134 718.95 33.9038ZM381.498 484.075C374.652 484.075 369.052 478.468 369.052 471.614C369.052 464.76 374.652 459.152 381.498 459.152C388.343 459.152 393.944 464.76 393.944 471.614C393.944 478.468 388.343 484.075 381.498 484.075ZM698.724 421.768H64.427C61.0043 421.768 58.2039 418.964 58.2039 415.537V66.6152C58.2039 56.3345 66.6052 47.923 76.8734 47.923H686.278C696.546 47.923 704.948 56.3345 704.948 66.6152V415.537C704.948 418.964 702.147 421.768 698.724 421.768Z" fill="black"/>
</svg>
